<?xml version="1.0" encoding="utf-8"?>
<!-- Generator: Adobe Illustrator 23.0.6, SVG Export Plug-In . SVG Version: 6.00 Build 0)  -->
<svg version="1.1" id="Layer_1" xmlns="http://www.w3.org/2000/svg" xmlns:xlink="http://www.w3.org/1999/xlink" x="0px" y="0px"
	 viewBox="0 0 124.4 124.4" style="enable-background:new 0 0 124.4 124.4;" xml:space="preserve">
<circle style="fill:#26A17B;" cx="62.2" cy="62.2" r="62.2"/>
<g>
	<path style="fill:#FFFFFF;" d="M68.83,67.94L68.83,67.94c-0.43,0.02-2.65,0.15-7.59,0.15c-3.95,0-6.72-0.11-7.7-0.16v0.01
		c-15.19-0.67-26.52-3.31-26.52-6.48c0-3.16,11.34-5.81,26.52-6.48v10.33c0.99,0.07,3.84,0.24,7.77,0.24c4.72,0,7.08-0.2,7.52-0.24
		V54.99c15.16,0.68,26.46,3.32,26.46,6.48c0,3.16-11.31,5.8-26.46,6.48 M68.83,53.92v-9.24h21.15V30.59H32.4v14.09h21.15v9.24
		c-17.19,0.79-30.11,4.19-30.11,8.27s12.93,7.48,30.11,8.28v29.62h15.29V70.47C86,69.68,98.9,66.28,98.9,62.2
		C98.9,58.13,86,54.72,68.83,53.92"/>
</g>
</svg>
