<svg id="Layer_1" data-name="Layer 1" xmlns="http://www.w3.org/2000/svg" xmlns:xlink="http://www.w3.org/1999/xlink" viewBox="0 0 327.43 100.52"><defs><style>.cls-1{fill:url(#linear-gradient);}.cls-2{fill:url(#linear-gradient-2);}.cls-3{fill:url(#linear-gradient-3);}.cls-4{fill:url(#linear-gradient-4);}.cls-5{fill:url(#linear-gradient-5);}.cls-6{fill:url(#linear-gradient-6);}.cls-7{fill:#323d4a;fill-rule:evenodd;}</style><linearGradient id="linear-gradient" x1="25.03" y1="90.82" x2="98.25" y2="90.82" gradientUnits="userSpaceOnUse"><stop offset="0" stop-color="#fbab7e"/><stop offset="1" stop-color="#f7ce68"/></linearGradient><linearGradient id="linear-gradient-2" x1="26.88" y1="45.97" x2="55.1" y2="74.19" xlink:href="#linear-gradient"/><linearGradient id="linear-gradient-3" x1="74.53" y1="81.41" x2="114.19" y2="41.75" xlink:href="#linear-gradient"/><linearGradient id="linear-gradient-4" x1="91.03" y1="9.7" x2="17.81" y2="9.7" xlink:href="#linear-gradient"/><linearGradient id="linear-gradient-5" x1="47.39" y1="66.5" x2="99.64" y2="14.25" xlink:href="#linear-gradient"/><linearGradient id="linear-gradient-6" x1="9.2" y1="28.02" x2="31.02" y2="49.85" xlink:href="#linear-gradient"/></defs><polygon class="cls-1" points="98.25 81.13 87.05 100.52 58.03 100.52 29.02 100.52 25.03 93.61 28.93 100.36 40.04 81.13 98.25 81.13 98.25 81.13"/><polygon class="cls-2" points="17.73 80.97 53.05 19.8 53.05 58.59 28.93 100.36 17.73 80.97 17.73 80.97"/><polygon class="cls-3" points="74.25 81.13 103.28 30.84 114.47 50.24 96.64 81.13 74.25 81.13 74.25 81.13"/><polygon class="cls-4" points="17.81 19.39 29 0 58.02 0 87.04 0 91.03 6.91 87.13 0.15 76.02 19.39 17.81 19.39 17.81 19.39"/><polygon class="cls-5" points="96.74 19.55 61.49 80.6 61.49 41.82 85.54 0.15 96.74 19.55 96.74 19.55"/><polygon class="cls-6" points="40.23 19.39 11.2 69.67 0 50.28 17.83 19.39 40.23 19.39 40.23 19.39"/><path class="cls-7" d="M197.53,68.22H171.27l26-33.17V25.68H154.53V36.89h25.8l-26,33.18v9.37h43.23V68.22Zm15.74,11.52c-1.46,4-4.6,6-9.6,6h-1.45v11h1.38c9.83,0,15.59-3.91,19.27-13.13l17-44.08h-11.9l-9,24.65L210.28,39.5h-11.9L213.5,79.13l-.23.61Zm27-20.27a21.72,21.72,0,0,0,5.37,15,18.21,18.21,0,0,0,24.58,2.23v2.07c0,4.61-4,8.07-9,8.07-3.61,0-6.83-1.77-8.06-4.23l-11.37,2.69a17.35,17.35,0,0,0,7.3,8.91,22.31,22.31,0,0,0,12.36,3.53,19.86,19.86,0,0,0,14.36-5.53,17.66,17.66,0,0,0,5.84-13.59V39.5H270.18v2.69a18.08,18.08,0,0,0-11.06-3.68,17.48,17.48,0,0,0-13.52,6c-3.61,4-5.37,9-5.37,15Zm20.88-9.6C266,49.87,270,54,270,59.55a9.3,9.3,0,0,1-2.61,6.75,8.36,8.36,0,0,1-6.3,2.77c-5,0-8.9-4.22-8.9-9.52,0-5.53,3.91-9.68,8.9-9.68Zm31.8,24.57a22.38,22.38,0,0,0,30.48,0,20.39,20.39,0,0,0,6.14-15,20.12,20.12,0,0,0-6.14-14.9,22.19,22.19,0,0,0-30.48,0,20.06,20.06,0,0,0-6.07,14.9,20.32,20.32,0,0,0,6.07,15Zm15.28-5.37a8.83,8.83,0,0,1-6.68-2.77,10,10,0,0,1,0-13.66,8.83,8.83,0,0,1,6.68-2.77,8.6,8.6,0,0,1,6.6,2.84,9.18,9.18,0,0,1,2.77,6.76,9.45,9.45,0,0,1-2.77,6.83,8.79,8.79,0,0,1-6.6,2.77Z" transform="translate(-2.11 -1.2)"/></svg>